<svg xmlns="http://www.w3.org/2000/svg" width="24" height="24" viewBox="0 0 24 24" fill="none">
  <path d="M21.6 4L13.2 9.6L14.4 6L21.6 4Z" fill="#E17726"/>
  <path d="M2.4 4L10.8 9.6L9.6 6L2.4 4Z" fill="#E27625"/>
  <path d="M18 16.8L16.8 20.4L21.6 21.6L22.8 16.8H18Z" fill="#E27625"/>
  <path d="M1.2 16.8L2.4 21.6L7.2 20.4L6 16.8H1.2Z" fill="#E27625"/>
  <path d="M7.2 12L6 14.4L10.8 14.4L10.8 9.6L7.2 12Z" fill="#E27625"/>
  <path d="M16.8 12L13.2 9.6V14.4L18 14.4L16.8 12Z" fill="#E27625"/>
  <path d="M7.2 20.4L10.8 19.2L7.2 16.8V20.4Z" fill="#E27625"/>
  <path d="M13.2 19.2L16.8 20.4V16.8L13.2 19.2Z" fill="#E27625"/>
</svg>

